<svg viewBox="0 0 304 22" xmlns="http://www.w3.org/2000/svg"><g fill="#3f3a3a"><path d="m93.03.42 2.4 15.65h.06l2.55-15.65h4.19l2.56 15.65h.06l2.4-15.65h4.19l-3.95 21.17h-4.89l-2.43-15.36h-.06l-2.43 15.36h-4.89l-3.96-21.17z"/><path d="m115.91 6.57a9.89 9.89 0 0 1 1-3.48 5.44 5.44 0 0 1 2.25-2.27 9.76 9.76 0 0 1 7.83 0 5.56 5.56 0 0 1 2.24 2.27 9.89 9.89 0 0 1 1 3.48 40.39 40.39 0 0 1 .22 4.43 40.51 40.51 0 0 1 -.22 4.45 10 10 0 0 1 -1 3.47 5.27 5.27 0 0 1 -2.23 2.22 10.34 10.34 0 0 1 -7.83 0 5.17 5.17 0 0 1 -2.24-2.22 10 10 0 0 1 -1-3.47 43.15 43.15 0 0 1 -.22-4.45 43 43 0 0 1 .22-4.43m4.26 8.06a9.59 9.59 0 0 0 .43 2.44 2.59 2.59 0 0 0 .91 1.35 2.51 2.51 0 0 0 1.56.44 2.54 2.54 0 0 0 1.57-.44 2.59 2.59 0 0 0 .91-1.35 10.11 10.11 0 0 0 .42-2.44c.07-1 .11-2.21.11-3.63s0-2.62-.11-3.62a10.11 10.11 0 0 0 -.44-2.38 2.68 2.68 0 0 0 -.91-1.38 2.68 2.68 0 0 0 -1.57-.43 2.64 2.64 0 0 0 -1.56.43 2.68 2.68 0 0 0 -.91 1.38 9.59 9.59 0 0 0 -.43 2.43c-.07 1-.1 2.19-.1 3.62s0 2.63.1 3.63"/><path d="m144.48.42a6.17 6.17 0 0 1 4.25 1.34 5.21 5.21 0 0 1 1.52 4.11 6.22 6.22 0 0 1 -.88 3.48 4.09 4.09 0 0 1 -2.73 1.74v.06a4 4 0 0 1 2.39 1 4.28 4.28 0 0 1 .95 2.58q.06.59.09 1.29c0 .46 0 1 .06 1.55q.06 1.7.18 2.58a1.64 1.64 0 0 0 .79 1.22v.17h-4.73a2.13 2.13 0 0 1 -.43-1c-.06-.38-.1-.78-.13-1.2l-.11-4.06a3.34 3.34 0 0 0 -.65-2 2.37 2.37 0 0 0 -1.94-.71h-2.33v8.95h-4.38v-21.1zm-1.89 9.25a3.63 3.63 0 0 0 2.41-.73 3.09 3.09 0 0 0 .85-2.45c0-1.95-1-2.93-3-2.93h-2.06v6.11z"/><path d="m156.39.42h4.37v17.67h7.75v3.5h-12.12z"/><path d="m181.13.42a8.06 8.06 0 0 1 3.68.72 5.3 5.3 0 0 1 2.19 2.08 9 9 0 0 1 1 3.24 30.34 30.34 0 0 1 .27 4.24 28.6 28.6 0 0 1 -.35 4.85 9.18 9.18 0 0 1 -1.19 3.4 5.32 5.32 0 0 1 -2.29 2 8.77 8.77 0 0 1 -3.61.64h-6.83v-21.17zm-.85 18a3.84 3.84 0 0 0 1.86-.38 2.7 2.7 0 0 0 1.1-1.28 7.06 7.06 0 0 0 .55-2.34c.09-1 .14-2.17.14-3.62 0-1.2 0-2.26-.12-3.17a7.7 7.7 0 0 0 -.51-2.27 2.88 2.88 0 0 0 -1.12-1.36 3.81 3.81 0 0 0 -2-.45h-1.85v14.89z"/><path d="m93.03.42 2.4 15.65h.06l2.55-15.65h4.19l2.56 15.65h.06l2.4-15.65h4.19l-3.95 21.17h-4.89l-2.43-15.36h-.06l-2.43 15.36h-4.89l-3.96-21.17z"/><path d="m115.91 6.57a9.89 9.89 0 0 1 1-3.48 5.44 5.44 0 0 1 2.25-2.27 9.76 9.76 0 0 1 7.83 0 5.56 5.56 0 0 1 2.24 2.27 9.89 9.89 0 0 1 1 3.48 40.39 40.39 0 0 1 .22 4.43 40.51 40.51 0 0 1 -.22 4.45 10 10 0 0 1 -1 3.47 5.27 5.27 0 0 1 -2.23 2.22 10.34 10.34 0 0 1 -7.83 0 5.17 5.17 0 0 1 -2.24-2.22 10 10 0 0 1 -1-3.47 43.15 43.15 0 0 1 -.22-4.45 43 43 0 0 1 .22-4.43m4.26 8.06a9.59 9.59 0 0 0 .43 2.44 2.59 2.59 0 0 0 .91 1.35 2.51 2.51 0 0 0 1.56.44 2.54 2.54 0 0 0 1.57-.44 2.59 2.59 0 0 0 .91-1.35 10.11 10.11 0 0 0 .42-2.44c.07-1 .11-2.21.11-3.63s0-2.62-.11-3.62a10.11 10.11 0 0 0 -.44-2.38 2.68 2.68 0 0 0 -.91-1.38 2.68 2.68 0 0 0 -1.57-.43 2.64 2.64 0 0 0 -1.56.43 2.68 2.68 0 0 0 -.91 1.38 9.59 9.59 0 0 0 -.43 2.43c-.07 1-.1 2.19-.1 3.62s0 2.63.1 3.63"/><path d="m144.48.42a6.17 6.17 0 0 1 4.25 1.34 5.21 5.21 0 0 1 1.52 4.11 6.22 6.22 0 0 1 -.88 3.48 4.09 4.09 0 0 1 -2.73 1.74v.06a4 4 0 0 1 2.39 1 4.28 4.28 0 0 1 .95 2.58q.06.59.09 1.29c0 .46 0 1 .06 1.55q.06 1.7.18 2.58a1.64 1.64 0 0 0 .79 1.22v.17h-4.73a2.13 2.13 0 0 1 -.43-1c-.06-.38-.1-.78-.13-1.2l-.11-4.06a3.34 3.34 0 0 0 -.65-2 2.37 2.37 0 0 0 -1.94-.71h-2.33v8.95h-4.38v-21.1zm-1.89 9.25a3.63 3.63 0 0 0 2.41-.73 3.09 3.09 0 0 0 .85-2.45c0-1.95-1-2.93-3-2.93h-2.06v6.11z"/><path d="m156.39.42h4.37v17.67h7.75v3.5h-12.12z"/><path d="m181.13.42a8.06 8.06 0 0 1 3.68.72 5.3 5.3 0 0 1 2.19 2.08 9 9 0 0 1 1 3.24 30.34 30.34 0 0 1 .27 4.24 28.6 28.6 0 0 1 -.35 4.85 9.18 9.18 0 0 1 -1.19 3.4 5.32 5.32 0 0 1 -2.29 2 8.77 8.77 0 0 1 -3.61.64h-6.83v-21.17zm-.85 18a3.84 3.84 0 0 0 1.86-.38 2.7 2.7 0 0 0 1.1-1.28 7.06 7.06 0 0 0 .55-2.34c.09-1 .14-2.17.14-3.62 0-1.2 0-2.26-.12-3.17a7.7 7.7 0 0 0 -.51-2.27 2.88 2.88 0 0 0 -1.12-1.36 3.81 3.81 0 0 0 -2-.45h-1.85v14.89z"/><path d="m195.4 9.28h12.39v3.51h-12.39z"/><path d="m225.51.41v15.24c0 4.51-2.1 6.35-6.53 6.35-4.62 0-5.75-2.88-5.75-6.2v-.92h4v.66c0 2.25.37 3.32 1.95 3.32s1.94-1.07 1.94-3.32v-15.13z"/><path d="m235.81.41h5.41l5.78 21.18h-4.6l-1-4.48h-5.77l-1 4.48h-4.56zm.58 13.2h4.25l-2.09-9.52h-.06z"/><path d="m252.31.41h7.69c4.44 0 5.95 3.18 5.95 6.35 0 4.39-2.76 6.38-6.89 6.38h-2.34v8.45h-4.38zm4.38 9.59h1.94c1.73 0 2.92-1 2.92-3.17s-.85-3.26-3-3.26h-1.82z"/><path d="m273.7.41h5.41l5.75 21.18h-4.56l-1-4.48h-5.78l-1 4.48h-4.52zm.58 13.2h4.26l-2.1-9.52h-.06z"/><path d="m294.64.41 5.29 14.5h.07v-14.5h4v21.18h-5l-5.33-14.83h-.06v14.83h-4v-21.18z"/><path d="m23 .27a3.33 3.33 0 0 0 -4.09 2.22l-2.4 8.21-6-9.07a3.37 3.37 0 0 0 -3.27-1.45 3.29 3.29 0 0 0 -2.7 2.31l-4.41 15.07a3.21 3.21 0 0 0 2.27 4 3.23 3.23 0 0 0 .91.13 3.3 3.3 0 0 0 3.18-2.34l2.4-8.21 6 9.07a3.33 3.33 0 0 0 3.26 1.44 3.26 3.26 0 0 0 2.7-2.3l4.4-15.08a3.23 3.23 0 0 0 -2.25-4z"/><path d="m50 .27a3.32 3.32 0 0 0 -4.09 2.22l-1.57 5.36h-7.46l1-3.58a3.22 3.22 0 0 0 -2.27-4 3.32 3.32 0 0 0 -4.09 2.22l-4.36 15.07a3.29 3.29 0 0 0 3.18 4.12 3.31 3.31 0 0 0 3.18-2.34l1.57-5.34h7.46l-1 3.58a3.29 3.29 0 0 0 3.18 4.12 3.3 3.3 0 0 0 3.18-2.34l4.36-15.09a3.22 3.22 0 0 0 -2.27-4z"/><path d="m77.93 1.43a3.38 3.38 0 0 0 -4.64-.63l-9.29 6.9 1-3.43a3.23 3.23 0 0 0 -2.27-4 3.32 3.32 0 0 0 -4.13 2.22l-4.42 15.07a3.22 3.22 0 0 0 2.28 4 3.18 3.18 0 0 0 .91.13 3.31 3.31 0 0 0 3.18-2.34l1.89-6.48a.94.94 0 0 0 .1.1l.11.15 7.17 7.54a3.38 3.38 0 0 0 4.68.17 3.18 3.18 0 0 0 .17-4.57l-4.67-4.93 7.29-5.33a3.17 3.17 0 0 0 .64-4.57z"/></g></svg>