<svg xmlns="http://www.w3.org/2000/svg" xmlns:xlink="http://www.w3.org/1999/xlink" viewBox="0 0 218.03 128.68"><defs><style>.cls-1{fill:#da4813;}.cls-2{fill:#23ac38;}.cls-3{fill:#e94609;}.cls-4{fill:#00afdd;}.cls-5{fill:#925da3;}.cls-6{fill:#3d595e;}.cls-7{fill:#28a13a;}.cls-8{fill:#1aa2cc;}.cls-9{fill:#825491;}.cls-10{fill:#885899;}.cls-11{fill:url(#名称未設定グラデーション_2);}</style><linearGradient id="名称未設定グラデーション_2" x1="0.19" y1="57.46" x2="215.7" y2="57.46" gradientUnits="userSpaceOnUse"><stop offset="0" stop-color="#28a13a"/><stop offset="0.3" stop-color="#1aa2cc"/><stop offset="0.66" stop-color="#885899"/><stop offset="1" stop-color="#da4813"/></linearGradient></defs><g id="Layer_2" data-name="Layer 2"><g id="レイヤー_1" data-name="レイヤー 1"><ellipse class="cls-1" cx="214.71" cy="52.86" rx="3.32" ry="3.79"/><path class="cls-2" d="M3.84,125.66H1.65V114.43H3.84Z"/><path class="cls-3" d="M14.16,125.66H11.62l-2.2-4.48H7.84v4.48H5.65V114.43h4.4a3.66,3.66,0,0,1,2.69,1,3.29,3.29,0,0,1,1,2.43,3,3,0,0,1-.62,1.92,3,3,0,0,1-1.43,1Zm-2.65-7.8a1.39,1.39,0,0,0-.45-1.07,1.62,1.62,0,0,0-1.15-.41H7.84v3H9.91a1.62,1.62,0,0,0,1.15-.41A1.37,1.37,0,0,0,11.51,117.86Z"/><path class="cls-3" d="M22.84,120.05a14.37,14.37,0,0,1-.15,2.54,3.52,3.52,0,0,1-1,1.94,4.37,4.37,0,0,1-6.08,0,3.6,3.6,0,0,1-1-1.94,26.94,26.94,0,0,1,0-5.08,3.63,3.63,0,0,1,1-2,4.37,4.37,0,0,1,6.08,0,3.55,3.55,0,0,1,1,2A14.29,14.29,0,0,1,22.84,120.05Zm-2.2,0c0-.87,0-1.41,0-1.65a2.61,2.61,0,0,0-.52-1.51,2,2,0,0,0-2.82,0,2.61,2.61,0,0,0-.51,1.51q0,.28,0,1.65c0,.9,0,1.45,0,1.64a2.58,2.58,0,0,0,.51,1.51,1.95,1.95,0,0,0,2.95-.16A6.3,6.3,0,0,0,20.64,120.05Z"/><path class="cls-4" d="M32.47,120a19.86,19.86,0,0,1-.1,2.46,3.77,3.77,0,0,1-1,2.13,4,4,0,0,1-3,1.07H24.31V114.43h4.05a4,4,0,0,1,3,1.07,3.72,3.72,0,0,1,1,2.08A19.18,19.18,0,0,1,32.47,120Zm-2.2,0a14.12,14.12,0,0,0-.08-1.91,2,2,0,0,0-.39-1,2,2,0,0,0-1.64-.7H26.5v7.33h1.66a2,2,0,0,0,1.64-.7,2,2,0,0,0,.39-1.05A15.2,15.2,0,0,0,30.27,120Z"/><path class="cls-4" d="M41.94,120.05a14.66,14.66,0,0,1-.14,2.54,3.47,3.47,0,0,1-1,1.94,4.36,4.36,0,0,1-6.07,0,3.6,3.6,0,0,1-1-1.94,24.88,24.88,0,0,1,0-5.08,3.63,3.63,0,0,1,1-2,4.36,4.36,0,0,1,6.07,0,3.5,3.5,0,0,1,1,2A14.58,14.58,0,0,1,41.94,120.05Zm-2.19,0c0-.87,0-1.41,0-1.65a2.61,2.61,0,0,0-.52-1.51,2,2,0,0,0-2.83,0,2.68,2.68,0,0,0-.5,1.51q0,.28,0,1.65c0,.9,0,1.45,0,1.64a2.66,2.66,0,0,0,.5,1.51,1.81,1.81,0,0,0,1.42.6,1.76,1.76,0,0,0,1.53-.76A6.12,6.12,0,0,0,39.75,120.05Z"/><path class="cls-5" d="M51.92,125.66H49.38l-2.19-4.48H45.61v4.48H43.42V114.43h4.4a3.64,3.64,0,0,1,2.68,1,3.29,3.29,0,0,1,1,2.43,3,3,0,0,1-2.05,2.95Zm-2.65-7.8a1.42,1.42,0,0,0-.44-1.07,1.65,1.65,0,0,0-1.15-.41H45.61v3h2.07a1.65,1.65,0,0,0,1.15-.41A1.4,1.4,0,0,0,49.27,117.86Z"/><path class="cls-5" d="M55.25,125.66h-2.2V114.43h2.2Z"/><path class="cls-6" d="M65.87,122a3.57,3.57,0,0,1-1.2,2.83,4.07,4.07,0,0,1-2.76,1A4,4,0,0,1,59,124.61l1.45-1.44a2,2,0,0,0,1.44.63c1.17,0,1.76-.64,1.76-1.92v-7.45h2.2Z"/><path class="cls-6" d="M73.68,125.66h-2V125a2.73,2.73,0,0,1-2,.79,2.79,2.79,0,0,1-2.09-.71,2.54,2.54,0,0,1-.69-1.86,2.27,2.27,0,0,1,.71-1.71,3,3,0,0,1,2.09-.67h1.93v-.41c0-.87-.51-1.3-1.52-1.3a2,2,0,0,0-1.57.68l-1.31-1.28a3.27,3.27,0,0,1,1.28-.9,5.13,5.13,0,0,1,1.69-.23q3.5,0,3.5,2.9Zm-2.07-3v-.44H70c-.77,0-1.15.31-1.15.93s.39.95,1.18.95a1.55,1.55,0,0,0,1.39-.52A1.68,1.68,0,0,0,71.61,122.63Z"/><path class="cls-6" d="M82,121.55a12.35,12.35,0,0,1-.11,1.89A2.88,2.88,0,0,1,81.2,125a2.71,2.71,0,0,1-2,.74,2.54,2.54,0,0,1-2-.82v3.74h-2V117.44h2v.78a2.63,2.63,0,0,1,2-.87,2.67,2.67,0,0,1,2,.74,2.85,2.85,0,0,1,.73,1.58A12.2,12.2,0,0,1,82,121.55Zm-2.07,0A5.26,5.26,0,0,0,79.8,120a1.32,1.32,0,0,0-2.42,0,7.29,7.29,0,0,0,0,3.13,1.32,1.32,0,0,0,2.42,0A5.22,5.22,0,0,0,80,121.55Z"/><path class="cls-6" d="M89.63,125.66h-2V125a2.73,2.73,0,0,1-2,.79,2.79,2.79,0,0,1-2.09-.71,2.54,2.54,0,0,1-.69-1.86,2.24,2.24,0,0,1,.72-1.71,2.91,2.91,0,0,1,2.08-.67h1.93v-.41c0-.87-.5-1.3-1.52-1.3a2,2,0,0,0-1.57.68l-1.31-1.28a3.27,3.27,0,0,1,1.28-.9,5.13,5.13,0,0,1,1.69-.23q3.5,0,3.5,2.9Zm-2.07-3v-.44H86c-.77,0-1.15.31-1.15.93s.39.95,1.18.95a1.55,1.55,0,0,0,1.39-.52A1.68,1.68,0,0,0,87.56,122.63Z"/><path class="cls-6" d="M97.94,125.66H95.87v-5a1.45,1.45,0,0,0-.44-1.16,1.25,1.25,0,0,0-.9-.34,1.29,1.29,0,0,0-.93.34,1.49,1.49,0,0,0-.44,1.16v5h-2v-8.22h2v.76a2.69,2.69,0,0,1,2-.85,2.67,2.67,0,0,1,2,.72,3.2,3.2,0,0,1,.83,2.34Z"/><path class="cls-6" d="M106.2,122.19h-5.15a1.86,1.86,0,0,0,.48,1.33,1.77,1.77,0,0,0,1.32.5,2.54,2.54,0,0,0,1.86-.77l1.25,1.21a4.36,4.36,0,0,1-1.32,1,4.45,4.45,0,0,1-1.8.33c-2.54,0-3.81-1.41-3.81-4.21a4.51,4.51,0,0,1,1-3.11,3.26,3.26,0,0,1,2.59-1.09,3.35,3.35,0,0,1,2.65,1.12,4.12,4.12,0,0,1,.93,2.81Zm-2-1.4a2.43,2.43,0,0,0-.19-.89,1.54,1.54,0,0,0-2.75,0,2.43,2.43,0,0,0-.19.89Z"/><path class="cls-6" d="M113.73,123.08a2.32,2.32,0,0,1-1,2,4.22,4.22,0,0,1-2.47.66,6.91,6.91,0,0,1-1.88-.21,3.78,3.78,0,0,1-1.63-1l1.34-1.34a3,3,0,0,0,2.2.78c1,0,1.45-.29,1.45-.85s-.29-.71-.87-.76l-1.29-.13c-1.6-.16-2.4-.92-2.4-2.3a2.33,2.33,0,0,1,1-2,3.6,3.6,0,0,1,2.21-.66,4.45,4.45,0,0,1,3.14,1l-1.26,1.28a2.79,2.79,0,0,0-1.91-.55c-.78,0-1.17.26-1.17.79s.29.65.85.71l1.3.12C112.92,120.82,113.73,121.62,113.73,123.08Z"/><path class="cls-6" d="M121.63,122.19h-5.15a1.86,1.86,0,0,0,.48,1.33,1.79,1.79,0,0,0,1.32.5,2.54,2.54,0,0,0,1.86-.77l1.25,1.21a4.36,4.36,0,0,1-1.32,1,4.45,4.45,0,0,1-1.8.33c-2.54,0-3.81-1.41-3.81-4.21a4.56,4.56,0,0,1,1-3.11,3.26,3.26,0,0,1,2.59-1.09,3.35,3.35,0,0,1,2.65,1.12,4.12,4.12,0,0,1,.93,2.81Zm-2-1.4a2.43,2.43,0,0,0-.19-.89,1.54,1.54,0,0,0-2.75,0,2.43,2.43,0,0,0-.19.89Z"/><path class="cls-6" d="M134.31,120.05a14.66,14.66,0,0,1-.14,2.54,3.47,3.47,0,0,1-1,1.94,4.36,4.36,0,0,1-6.07,0,3.6,3.6,0,0,1-1-1.94,24.88,24.88,0,0,1,0-5.08,3.63,3.63,0,0,1,1-2,4.36,4.36,0,0,1,6.07,0,3.5,3.5,0,0,1,1,2A14.58,14.58,0,0,1,134.31,120.05Zm-2.19,0c0-.87,0-1.41,0-1.65a2.61,2.61,0,0,0-.52-1.51,1.81,1.81,0,0,0-1.41-.6,1.83,1.83,0,0,0-1.42.6,2.68,2.68,0,0,0-.5,1.51q0,.28,0,1.65c0,.9,0,1.45,0,1.64a2.66,2.66,0,0,0,.5,1.51,1.83,1.83,0,0,0,1.42.6,1.79,1.79,0,0,0,1.54-.76A6.3,6.3,0,0,0,132.12,120.05Z"/><path class="cls-6" d="M142.55,125.66h-2.07v-5a1.49,1.49,0,0,0-.44-1.16,1.4,1.4,0,0,0-1.83,0,1.45,1.45,0,0,0-.44,1.16v5h-2.06v-8.22h2v.76a2.69,2.69,0,0,1,2.05-.85,2.63,2.63,0,0,1,1.94.72,3.16,3.16,0,0,1,.84,2.34Z"/><path class="cls-6" d="M147.52,125.66h-1.16a2.31,2.31,0,0,1-1.84-.74,2.39,2.39,0,0,1-.56-1.61v-8.88H146v8.76a.65.65,0,0,0,.72.74h.78Z"/><path class="cls-6" d="M150.76,115.12a1.29,1.29,0,0,1-.37.92,1.24,1.24,0,0,1-.91.38,1.28,1.28,0,0,1-.92-.38,1.26,1.26,0,0,1-.38-.92,1.22,1.22,0,0,1,.38-.9,1.28,1.28,0,0,1,.92-.38,1.28,1.28,0,0,1,1.28,1.28Zm-.26,10.54h-2.06v-8.22h2.06Z"/><path class="cls-6" d="M158.89,125.66h-2.07v-5a1.49,1.49,0,0,0-.44-1.16,1.4,1.4,0,0,0-1.83,0,1.45,1.45,0,0,0-.44,1.16v5h-2.06v-8.22h2v.76a2.69,2.69,0,0,1,2.05-.85,2.63,2.63,0,0,1,1.94.72,3.16,3.16,0,0,1,.84,2.34Z"/><path class="cls-6" d="M167.14,122.19H162a1.86,1.86,0,0,0,.48,1.33,1.76,1.76,0,0,0,1.32.5,2.57,2.57,0,0,0,1.86-.77l1.25,1.21a4.51,4.51,0,0,1-1.33,1,4.39,4.39,0,0,1-1.8.33c-2.53,0-3.8-1.41-3.8-4.21a4.55,4.55,0,0,1,1-3.11,3.66,3.66,0,0,1,5.24,0,4.12,4.12,0,0,1,.93,2.81Zm-2-1.4a2.24,2.24,0,0,0-.19-.89,1.53,1.53,0,0,0-2.74,0,2.24,2.24,0,0,0-.19.89Z"/><path class="cls-6" d="M178.79,124.46a4.31,4.31,0,0,1-3.13,1.3,4.11,4.11,0,0,1-3-1.23,3.53,3.53,0,0,1-1-1.94,24.88,24.88,0,0,1,0-5.08,3.56,3.56,0,0,1,1-2,4.11,4.11,0,0,1,3-1.23,4.35,4.35,0,0,1,3.13,1.3l-1.45,1.45a2.36,2.36,0,0,0-1.68-.79,1.77,1.77,0,0,0-1.51.74,6.46,6.46,0,0,0-.43,3c0,.87,0,1.42,0,1.64a2.72,2.72,0,0,0,.52,1.53,1.75,1.75,0,0,0,1.38.58,2.36,2.36,0,0,0,1.68-.79Z"/><path class="cls-6" d="M186.08,121.55a7.21,7.21,0,0,1-.19,1.87,3,3,0,0,1-.74,1.33,3.72,3.72,0,0,1-5.1,0,3,3,0,0,1-.74-1.33,7.21,7.21,0,0,1-.19-1.87,4.54,4.54,0,0,1,.95-3.21,3.73,3.73,0,0,1,5.06,0A4.54,4.54,0,0,1,186.08,121.55Zm-2.07,0a2.9,2.9,0,0,0-.47-2,1.38,1.38,0,0,0-1.88,0,2.9,2.9,0,0,0-.47,2,2.93,2.93,0,0,0,.47,2,1.41,1.41,0,0,0,1.88,0A2.93,2.93,0,0,0,184,121.55Z"/><path class="cls-6" d="M194.06,125.66h-2v-.75a2.74,2.74,0,0,1-2.06.85,2.61,2.61,0,0,1-1.94-.73,3.16,3.16,0,0,1-.83-2.33v-5.26h2.07v5a1.49,1.49,0,0,0,.43,1.17,1.29,1.29,0,0,0,.91.33,1.31,1.31,0,0,0,.92-.33,1.49,1.49,0,0,0,.43-1.17v-5h2.07Z"/><path class="cls-6" d="M201.61,118.12l-1.55,1.56a1.53,1.53,0,0,0-1.09-.49,1.22,1.22,0,0,0-.89.37,1.53,1.53,0,0,0-.43,1.15v5H195.6v-8.22h2v.79a2.56,2.56,0,0,1,2.07-.88A2.65,2.65,0,0,1,201.61,118.12Z"/><path class="cls-6" d="M208.11,123.08a2.34,2.34,0,0,1-1,2,4.25,4.25,0,0,1-2.48.66,6.88,6.88,0,0,1-1.87-.21,3.72,3.72,0,0,1-1.63-1l1.34-1.34a3,3,0,0,0,2.2.78c1,0,1.45-.29,1.45-.85s-.29-.71-.87-.76l-1.29-.13c-1.6-.16-2.4-.92-2.4-2.3a2.33,2.33,0,0,1,1-2,3.58,3.58,0,0,1,2.21-.66,4.47,4.47,0,0,1,3.14,1l-1.26,1.28a2.79,2.79,0,0,0-1.91-.55c-.78,0-1.17.26-1.17.79s.28.65.85.71l1.3.12C207.3,120.82,208.11,121.62,208.11,123.08Z"/><path class="cls-6" d="M216,122.19h-5.14a1.86,1.86,0,0,0,.48,1.33,1.76,1.76,0,0,0,1.32.5,2.55,2.55,0,0,0,1.86-.77l1.25,1.21a4.51,4.51,0,0,1-1.33,1,4.39,4.39,0,0,1-1.8.33c-2.53,0-3.8-1.41-3.8-4.21a4.55,4.55,0,0,1,1-3.11,3.66,3.66,0,0,1,5.24,0,4.12,4.12,0,0,1,.93,2.81Zm-2-1.4a2.24,2.24,0,0,0-.19-.89,1.53,1.53,0,0,0-2.74,0,2.24,2.24,0,0,0-.19.89Z"/><path class="cls-7" d="M15.1,81.67a9.67,9.67,0,0,1,.79-1.09,1.49,1.49,0,0,1,.45-.35,1.83,1.83,0,0,1,.93-.23,1.87,1.87,0,0,1,1.09.33,1.92,1.92,0,0,1,.74.88,1.88,1.88,0,0,1,.14.94,1.44,1.44,0,0,1-.14.56,10.78,10.78,0,0,1-.7,1.14,11.13,11.13,0,0,1-.77,1.08,1.44,1.44,0,0,1-.47.36,1.86,1.86,0,0,1-.91.23,2,2,0,0,1-1.11-.33,1.87,1.87,0,0,1-.72-.88,1.91,1.91,0,0,1-.16-.94c0-.1,0-.18.05-.27a2.08,2.08,0,0,1,.1-.3A11.06,11.06,0,0,1,15.1,81.67Zm.7.46a6.33,6.33,0,0,0-.58,1,1,1,0,0,0-.09.52,1.23,1.23,0,0,0,.13.44,1,1,0,0,0,.36.39,1,1,0,0,0,.51.18,1,1,0,0,0,.43-.06.94.94,0,0,0,.46-.28,6.93,6.93,0,0,0,.68-.92,7,7,0,0,0,.59-1,1.07,1.07,0,0,0,.08-.52,1.16,1.16,0,0,0-.12-.43,1.23,1.23,0,0,0-.37-.39,1.28,1.28,0,0,0-.49-.18,1.14,1.14,0,0,0-.46,0,1,1,0,0,0-.44.28A6.83,6.83,0,0,0,15.8,82.13Z"/><path class="cls-1" d="M23.38,83.41l.71.36.45,4.76h0l1.81-3.65.75.37L24.57,90.4,23.86,90l-.45-4.76h0l-1.81,3.65-.75-.37Z"/><path class="cls-8" d="M31,86.9l.79.3L30,91.8l2.53,1-.29.76-3.32-1.24Z"/><path class="cls-9" d="M37.94,89.33l.8.24L37.1,95.06l-.8-.24Z"/><path class="cls-1" d="M42.73,90.67l.77.17,1.56,4.53h0l.9-4,.82.18-1.26,5.59L44.75,97,43.2,92.47h0l-.89,4-.82-.19Z"/><path class="cls-8" d="M51,92.34l3.51.5-.12.81-2.68-.39-.23,1.63,2.28.33-.11.76-2.28-.33-.25,1.67,2.68.39-.12.81L50.13,98Z"/><path class="cls-9" d="M66.41,98.1a2.24,2.24,0,0,1-.78,1.18,1.93,1.93,0,0,1-1.28.33,2,2,0,0,1-1.66-1.14,1.61,1.61,0,0,1-.09-.26,1.22,1.22,0,0,1-.06-.31,9.72,9.72,0,0,1,0-1.33,8.13,8.13,0,0,1,.15-1.33,1.54,1.54,0,0,1,.22-.53,1.83,1.83,0,0,1,.69-.66,1.92,1.92,0,0,1,1.12-.25,1.87,1.87,0,0,1,1.27.58,2.17,2.17,0,0,1,.55,1.25l-.89-.06a1.25,1.25,0,0,0-.33-.62,1.11,1.11,0,0,0-.67-.29,1.21,1.21,0,0,0-.52.09,1.14,1.14,0,0,0-.37.27,1,1,0,0,0-.24.46,6.41,6.41,0,0,0-.15,1.15,7.35,7.35,0,0,0,0,1.15.93.93,0,0,0,.18.49,1,1,0,0,0,.33.32,1,1,0,0,0,.5.16A1.13,1.13,0,0,0,65.52,98Z"/><path class="cls-7" d="M69.91,97A8.55,8.55,0,0,1,70,95.65a1.7,1.7,0,0,1,.19-.54,2,2,0,0,1,.66-.69,1.85,1.85,0,0,1,1.1-.31,1.9,1.9,0,0,1,1.72,1.06,1.32,1.32,0,0,1,.18.55,11.3,11.3,0,0,1,0,1.34,13,13,0,0,1-.07,1.32,1.37,1.37,0,0,1-.21.56,1.79,1.79,0,0,1-.64.68,2,2,0,0,1-2.2,0,2,2,0,0,1-.63-.71c0-.09-.08-.17-.11-.25a1.8,1.8,0,0,1-.07-.31A11.19,11.19,0,0,1,69.91,97Zm.84,0a6.56,6.56,0,0,0,0,1.14.92.92,0,0,0,.21.49,1,1,0,0,0,.34.29,1,1,0,0,0,.51.14,1,1,0,0,0,.53-.12.93.93,0,0,0,.34-.28,1,1,0,0,0,.23-.48A7.52,7.52,0,0,0,73,97a8,8,0,0,0,0-1.15,1,1,0,0,0-.22-.48,1,1,0,0,0-.33-.3,1.17,1.17,0,0,0-.52-.13,1.13,1.13,0,0,0-.51.11,1,1,0,0,0-.36.29,1,1,0,0,0-.22.47A6.61,6.61,0,0,0,70.75,97Z"/><path class="cls-1" d="M77.86,94.14l.84,0,.18,3.69a1.26,1.26,0,0,0,.37.88,1.09,1.09,0,0,0,.82.28,1.13,1.13,0,0,0,.8-.36,1.2,1.2,0,0,0,.27-.91L81,94l.84,0L82,97.73a1.92,1.92,0,0,1-1.87,2.08,1.92,1.92,0,0,1-1.42-.48,1.85,1.85,0,0,1-.65-1.4Z"/><path class="cls-8" d="M85.9,93.59l2.15-.28a1.67,1.67,0,0,1,1.17.23,1.56,1.56,0,0,1,.7,1.15,1.6,1.6,0,0,1-.86,1.71l1.6,2.36-1,.12L88.21,96.6l-1.06.14.31,2.43-.83.1ZM87.05,96l1.26-.16a.88.88,0,0,0,.67-.37.93.93,0,0,0,.15-.66.77.77,0,0,0-.36-.61,1,1,0,0,0-.63-.09l-1.31.17Z"/><path class="cls-9" d="M94.58,96.65a2.43,2.43,0,0,0,1.66.22q1-.25.9-1a.72.72,0,0,0-.87-.59l-.74,0a1.83,1.83,0,0,1-1.18-.3,1.58,1.58,0,0,1-.61-1A1.61,1.61,0,0,1,94,92.77,1.79,1.79,0,0,1,95.15,92a3.09,3.09,0,0,1,1.89.19l-.31.8a2.53,2.53,0,0,0-1.44-.14,1,1,0,0,0-.58.34.71.71,0,0,0-.14.66.6.6,0,0,0,.28.4,1,1,0,0,0,.64.15l.63-.05a1.72,1.72,0,0,1,1.25.32,1.67,1.67,0,0,1,.59,1c.21,1.07-.3,1.76-1.54,2a3.1,3.1,0,0,1-2.24-.3Z"/><path class="cls-1" d="M100.83,90.63l3.37-1.1.26.78-2.58.84.51,1.56,2.2-.72.24.73-2.2.72.52,1.6,2.57-.83L106,95l-3.38,1.1Z"/><circle class="cls-8" cx="79.43" cy="84.91" r="3.79"/><circle class="cls-10" cx="139.89" cy="61.51" r="3.79"/><path class="cls-3" d="M65.07,62.2a7.37,7.37,0,0,1-4.5-3.7L54.7,48.77c3.18-2.07,4.88-5.92,4.58-10.37a10.19,10.19,0,0,0-3.65-7.64,11.8,11.8,0,0,0-8.22-2.12L42.62,29c-1.58.11-6,.52-7.46.83l-.19,0,0,.18a8.47,8.47,0,0,0-.26,2.74l0,.31H35c1.89-.08,3.19.41,3.37,3.08l1.47,21.52a32.28,32.28,0,0,0,.69,5.18L37.5,64l0,.17a7.64,7.64,0,0,0-.17,2.38l.05.28,12.71-.87.07-.2A7.89,7.89,0,0,0,50.39,63l0-.3h-.31c-2.52.1-3.81-.89-4-3l-.63-9.34a23,23,0,0,0,3.6.16l6.72,11.33c2.15,3.65,4.45,4,6.21,3.86a6.14,6.14,0,0,0,3.28-1.07l.16-.1-.15-2.22ZM45.27,46.72l-1-14,2.45-.16c3.56-.25,6.24,2.29,6.51,6.17.24,3.59-1.66,7.54-5.66,7.81Z"/><path class="cls-3" d="M81,23.13a15.51,15.51,0,0,0-12.09,4.18c-3.44,3.24-5.52,8-6,13.62s.76,10.56,3.61,14.33a15.47,15.47,0,0,0,11.19,6.18c.48,0,1,.06,1.42.06a15.54,15.54,0,0,0,10.72-4.23c3.45-3.24,5.52-7.91,6-13.51C96.8,32.45,90.7,24,81,23.13Zm7.93,19.76h0a23.66,23.66,0,0,1-3.16,10.42C84.37,55.49,81.9,58,78,57.68c-6.6-.57-8.88-8.66-8.22-16.42.63-7.36,4-14.55,10.17-14.55l.7,0c3.09.26,5.47,2.16,6.89,5.5A23.05,23.05,0,0,1,88.91,42.89Z"/><path class="cls-2" d="M33.62,44.58l-.07-.27-.28,0c-1.83.28-3.06-.07-3.54-2.72l-3.9-21.54A29.33,29.33,0,0,0,24.57,15L27,13.65l0-.15a6.07,6.07,0,0,0-.09-2.4l-.08-.28L15.33,12.9l0,.21a8.14,8.14,0,0,0,0,2.77l.06.3.3-.05c2.29-.36,3.21.35,3.66,2.81l3.88,21.43a36.54,36.54,0,0,0,1.21,5.08l-2.77,1.44,0,.15a6.07,6.07,0,0,0,.09,2.4l.08.28,11.81-2.14.05-.2A6.88,6.88,0,0,0,33.62,44.58Z"/><path class="cls-4" d="M145.91,5c-9.57-1.72-17.65,4.89-19.66,16.06-1,5.53-.21,10.58,2.27,14.6a15.56,15.56,0,0,0,10.59,7.19,16.69,16.69,0,0,0,2.89.26,15.51,15.51,0,0,0,9.57-3.3c3.74-2.91,6.23-7.37,7.23-12.9C160.81,15.73,155.51,6.72,145.91,5ZM152,25.4a23.63,23.63,0,0,1-4.11,10.09c-1.57,2-4.25,4.32-8.09,3.63s-5.57-3.76-6.33-6.22A23.63,23.63,0,0,1,133.11,22a22.85,22.85,0,0,1,4.08-9.94,8.45,8.45,0,0,1,6.67-3.64,8.57,8.57,0,0,1,1.41.12C151.79,9.73,153.34,17.86,152,25.4Z"/><path class="cls-4" d="M102.49.69,98.14,1.74c-1.54.38-5.87,1.54-7.21,2.09l-.18.07,0,.19a8.92,8.92,0,0,0,.21,2.74l.08.3.3-.06c1.85-.4,3.21-.13,3.84,2.46l5.09,21a28.63,28.63,0,0,0,1.56,5L99,37.11v.17a7.39,7.39,0,0,0,.24,2.37l.1.27,13.16-3.2c9.81-2.38,14.84-11.56,12.22-22.31C122.71,6.08,115.67-2.52,102.49.69ZM111.1,33.4a4,4,0,0,1-2.89,0c-.71-.39-1.22-1.29-1.59-2.84L100.46,5.18l2.74-.67c6.85-1.67,12.65,2.87,14.76,11.54s-.49,15.8-6.35,17.22Z"/><circle class="cls-7" cx="3.79" cy="56.42" r="3.79"/><path class="cls-5" d="M184.48,58.38,179.78,48c3.4-1.69,5.54-5.32,5.75-9.78.31-6.59-3.68-10.73-10.67-11.06L170.07,27c-1.59-.07-6.07-.18-7.51,0l-.19,0-.07.17a8.32,8.32,0,0,0-.57,2.69l0,.31.31,0c1.89.14,3.12.78,3,3.45l-1,21.55a31,31,0,0,0,.08,5.21l-3.13.78-.06.16a7.4,7.4,0,0,0-.44,2.35l0,.28,12.73.61.09-.19a7.94,7.94,0,0,0,.58-2.71v-.31l-.31,0c-2.51-.19-3.68-1.33-3.57-3.48l.44-9.35a23.09,23.09,0,0,0,3.57.58l5.36,12c1.71,3.88,4,4.47,5.72,4.56h.46a6.09,6.09,0,0,0,2.93-.69l.16-.09.11-2.22-.21-.08A7.41,7.41,0,0,1,184.48,58.38Zm-5-20.46a8.56,8.56,0,0,1-1.84,5A5.57,5.57,0,0,1,173,45l-2.35-.11.67-14,2.45.12a5.7,5.7,0,0,1,4.36,2.14A7.08,7.08,0,0,1,179.52,37.92Z"/><path class="cls-5" d="M192.89,19.83l-.11.18a8.14,8.14,0,0,0-.82,2.64l-.05.31.31.05c2.29.37,2.94,1.33,2.6,3.8l-3,21.58a35.12,35.12,0,0,0-.44,5.2l-3.07.51-.08.13a6,6,0,0,0-.66,2.31l0,.29,11.89,1.65.11-.18a7,7,0,0,0,.83-2.67v-.28l-.28-.05c-1.82-.3-2.88-1-2.51-3.69l3-21.68a30.86,30.86,0,0,0,.39-5.22l2.7-.55.07-.13a5.82,5.82,0,0,0,.67-2.31v-.29Z"/><path class="cls-11" d="M152.7,55l3.36-2.52q1.69-1.28,3.39-2.52l.15-3.89Q156.9,48,154.22,50l-3.36,2.53c-1.69,1.27-3.39,2.55-5.11,3.82A7.88,7.88,0,0,1,147.3,59ZM15.24,30.83l-.66-3A17.82,17.82,0,0,0,2.89,36.4,20.24,20.24,0,0,0,.4,49.4a7.69,7.69,0,0,1,3-.77A17.06,17.06,0,0,1,5.54,38,14.82,14.82,0,0,1,15.24,30.83ZM215.57,44.67a17.18,17.18,0,0,0-9.72-10.1l-.68-.25-.64,3,.11,0a14.16,14.16,0,0,1,8,8.11,7.66,7.66,0,0,1,2.59-.45l.52,0C215.65,44.94,215.62,44.8,215.57,44.67Zm-6.65,19.24c-3.82,4.76-9.84,8.6-17.39,11.09-14.63,4.82-40.9,4.55-63.4-2.94,2.37-1.4,4.69-2.87,7-4.38a7.86,7.86,0,0,1-2-2.35c-2.87,1.89-5.78,3.7-8.76,5.38-9.65-3.65-18.41-8.71-25-15.36L97.18,57.5c5.95,6,14,11.16,23.63,15.1l-1.83.92A104.47,104.47,0,0,1,87,83a7.68,7.68,0,0,1,.25,1.93,7.46,7.46,0,0,1-.1,1.16,107.68,107.68,0,0,0,33.19-9.8q2.16-1,4.27-2.21a117.7,117.7,0,0,0,20.13,5.29c17.5,3.06,35.8,2.5,47.76-1.44,8.11-2.67,14.63-6.85,18.83-12.08a25.74,25.74,0,0,0,3.23-5.19,7.74,7.74,0,0,1-3-.87A22.6,22.6,0,0,1,208.92,63.91ZM71.67,84a119,119,0,0,1-14.81-.88C40.16,81.05,25,74.74,14.15,65.36a49,49,0,0,1-4.23-4.12,7.74,7.74,0,0,1-2.33,2,53.58,53.58,0,0,0,4.55,4.44c11.29,9.78,27,16.34,44.35,18.48a122.51,122.51,0,0,0,15,.93h.41a7.8,7.8,0,0,1-.32-2.17A9.07,9.07,0,0,1,71.67,84Z"/></g></g></svg>